<?xml version="1.0" encoding="utf-8"?>
<!-- Generator: Adobe Illustrator 19.1.0, SVG Export Plug-In . SVG Version: 6.00 Build 0)  -->
<svg version="1.1" id="Layer_1" xmlns="http://www.w3.org/2000/svg" xmlns:xlink="http://www.w3.org/1999/xlink" x="0px" y="0px"
	 viewBox="0 0 210 34" style="enable-background:new 0 0 210 34;" xml:space="preserve">
<style type="text/css">
	.st0{fill:#7AB2E1;}
	.st1{fill:#004B93;}
</style>
<g>
	<circle class="st0" cx="17" cy="4.2" r="4.2"/>
	<path class="st0" d="M21.2,17c0,2.3-1.9,4.2-4.2,4.2c-2.3,0-4.2-1.9-4.2-4.2c0-2.3,1.9-4.2,4.2-4.2C19.3,12.8,21.2,14.7,21.2,17z"
		/>
	<path class="st0" d="M8.4,17c0,2.3-1.9,4.2-4.2,4.2C1.9,21.2,0,19.3,0,17c0-2.3,1.9-4.2,4.2-4.2C6.5,12.8,8.4,14.7,8.4,17z"/>
	<path class="st1" d="M34,17c0,2.3-1.9,4.2-4.2,4.2c-2.3,0-4.2-1.9-4.2-4.2c0-2.3,1.9-4.2,4.2-4.2C32.1,12.8,34,14.7,34,17z"/>
	<circle class="st1" cx="17" cy="29.8" r="4.2"/>
</g>
<g>
	<path class="st1" d="M52.3,11.1c-1.4-0.6-2.5-0.9-3.4-0.9c-1.2,0-1.9,0.5-1.9,1.2c0,0.6,0.3,0.9,1.3,1.4c2,1.1,3.3,1.9,4,2.5
		c0.6,0.6,0.9,1.4,0.9,2.4c0,2.4-1.7,3.7-4.6,3.7c-0.4,0-0.8,0-1.2-0.1c-0.9-0.1-1.4-0.3-2.8-0.9c-0.2-0.1-0.5-0.2-0.9-0.4l1.1-2.3
		c1,0.5,1.4,0.7,1.9,0.9c0.7,0.2,1.4,0.4,1.9,0.4c1.2,0,1.9-0.5,1.9-1.3c0-0.6-0.3-0.9-1.2-1.4l-2-1.2c-2.3-1.3-3.1-2.2-3.1-3.7
		c0-0.7,0.2-1.3,0.5-1.8c0.2-0.3,0.6-0.7,1-1c1-0.7,1.8-0.9,3.3-0.9c0.9,0,1.7,0.1,2.5,0.3c0.6,0.2,1,0.3,1.9,0.8L52.3,11.1z"/>
	<path class="st1" d="M60.4,15.5v5.7h-2.5v-5.7l-4-7.5h2.8l2.6,5.2L62.1,8h2.8L60.4,15.5z"/>
	<path class="st1" d="M73.5,21.2l-4.4-6.3v6.3h-2.5V8h2.5v6.2L73.2,8h2.9l-4.5,6.4l4.8,6.8H73.5z"/>
	<path class="st1" d="M78.1,21.2V8h8v2.1h-5.5v3.3h4.5v2.1h-4.5v3.5h5.8v2.1H78.1z"/>
	<path class="st1" d="M98.2,21.2v-5.7h-6.8v5.7h-2.5V8h2.5v5.3h6.8V8h2.5v13.2H98.2z"/>
	<path class="st1" d="M113.2,20.5c-1,0.7-2.1,1-3.7,1c-1.7,0-2.7-0.3-3.7-1c-1.4-0.9-1.8-2-1.8-4.5V8h2.5v8.2c0,2,1,2.9,3.1,2.9
		c1.9,0,2.9-1,2.9-2.9V8h2.5v8C115,18.5,114.6,19.5,113.2,20.5z"/>
	<path class="st1" d="M125.6,11.1c-1.4-0.6-2.5-0.9-3.4-0.9c-1.2,0-1.9,0.5-1.9,1.2c0,0.6,0.3,0.9,1.3,1.4c2,1.1,3.3,1.9,4,2.5
		c0.6,0.6,0.9,1.4,0.9,2.4c0,2.4-1.7,3.7-4.6,3.7c-0.4,0-0.8,0-1.2-0.1c-0.9-0.1-1.4-0.3-2.8-0.9c-0.2-0.1-0.5-0.2-0.9-0.4l1.1-2.3
		c1,0.5,1.4,0.7,1.9,0.9c0.7,0.2,1.4,0.4,1.9,0.4c1.2,0,1.9-0.5,1.9-1.3c0-0.6-0.3-0.9-1.2-1.4l-2-1.2c-2.3-1.3-3.1-2.2-3.1-3.7
		c0-0.7,0.2-1.3,0.5-1.8c0.2-0.3,0.6-0.7,1-1c1-0.7,1.8-0.9,3.3-0.9c0.9,0,1.7,0.1,2.5,0.3c0.6,0.2,1,0.3,1.9,0.8L125.6,11.1z"/>
	<path class="st1" d="M136.6,15.6c-0.9,0.8-2.1,1.1-3.9,1.1c-0.5,0-0.8,0-1.2-0.1v4.5H129V8h4.5c1.7,0,2.7,0.3,3.5,1.1
		c0.7,0.7,1.1,1.7,1.1,3C138.1,13.5,137.6,14.8,136.6,15.6z M133.2,10.1h-1.8v4.4l0.3,0h0.3c0.3,0,0.5,0,0.6,0c2,0,2.8-0.7,2.8-2.3
		C135.5,10.8,134.8,10.1,133.2,10.1z"/>
	<path class="st1" d="M147.5,21.2l-1-3.3H142l-1.1,3.3h-2.6L143.1,8h2.3l4.8,13.2H147.5z M144.2,11l-1.5,4.8h3.1L144.2,11z"/>
	<path class="st1" d="M158.8,21.2l-3-5.3h-1.3v5.3H152V8h4.4c1.9,0,2.8,0.2,3.6,1c0.7,0.7,1.1,1.6,1.1,2.9c0,1-0.2,1.8-0.7,2.5
		c-0.5,0.6-1,0.9-2.1,1.2l3.3,5.7H158.8z M156.1,10.1h-1.6v3.6h1.6c1.6,0,2.3-0.6,2.3-1.9C158.4,10.6,157.8,10.1,156.1,10.1z"/>
	<path class="st1" d="M168.5,10.1v11.1H166V10.1h-4V8h10.4v2.1H168.5z"/>
	<path class="st1" d="M183.2,21.3l-5.7-8.5c0-0.1-0.1-0.2-0.3-0.5c-0.1-0.2-0.1-0.3-0.2-0.3c-0.1-0.2-0.1-0.2-0.2-0.5v9.7h-2.4V8
		h2.9l5.5,8.7c0,0,0.1,0.1,0.1,0.3c0.1,0.1,0.1,0.2,0.1,0.3l0.1,0.3l0.1,0.2V8h2.4v13.3H183.2z"/>
	<path class="st1" d="M189.6,21.2V8h8v2.1h-5.5v3.3h4.5v2.1h-4.5v3.5h5.8v2.1H189.6z"/>
	<path class="st1" d="M207.2,21.2l-3-5.3h-1.3v5.3h-2.5V8h4.4c1.9,0,2.8,0.2,3.6,1c0.7,0.7,1.1,1.6,1.1,2.9c0,1-0.2,1.8-0.7,2.5
		c-0.5,0.6-1,0.9-2.1,1.2l3.3,5.7H207.2z M204.6,10.1h-1.6v3.6h1.6c1.6,0,2.3-0.6,2.3-1.9C206.9,10.6,206.2,10.1,204.6,10.1z"/>
</g>
</svg>
